<svg xmlns="http://www.w3.org/2000/svg" width="1220" height="760" viewBox="0 0 1220 760">
  <rect width="1220" height="760" fill="#fff"/>
  <text x="40" y="58" font-family="DejaVu Sans,Arial,sans-serif" font-size="34" font-weight="700">TCG#10 — runtime evidence</text>
  <text x="40" y="88" font-family="DejaVu Sans,Arial,sans-serif" font-size="17">Три проверенные карточки 2×1 и один корректный stop-case</text>
  <g transform="translate(40 120)">
    <rect width="550" height="260" fill="#fff" stroke="#ddd"/><line x1="275" y1="10" x2="275" y2="250" stroke="#eee"/>
    <g stroke="#aaa" fill="none"><path d="M20 90 Q90 40 155 90 T255 80"/><path d="M20 155 H255"/><path d="M20 185 H255"/></g>
    <g transform="translate(70 70)" stroke="#111" fill="#fff" stroke-width="4"><rect x="0" y="80" width="155" height="65" rx="28"/><circle cx="40" cy="113" r="18"/><circle cx="92" cy="113" r="18"/><circle cx="132" cy="113" r="16"/><path d="M35 80 L52 30 H118 L135 80 Z"/><path d="M68 30 L76 0 H112 L120 30 Z"/><path d="M132 70 L175 83 M132 100 L175 108"/><path d="M174 66 L205 72 L207 139 L178 142 Z"/></g>
    <path d="M242 198 Q262 180 274 202" fill="none" stroke="#777" stroke-width="3"/>
    <text x="138" y="238" text-anchor="middle" font-family="DejaVu Sans,Arial,sans-serif" font-size="14" font-weight="700">Гусеничный бульдозер разравнивает землю</text>
    <text x="412" y="52" text-anchor="middle" font-family="DejaVu Sans,Arial,sans-serif" font-size="26" font-weight="700">Бульдозер</text>
    <text x="412" y="83" text-anchor="middle" font-family="DejaVu Sans,Arial,sans-serif" font-size="12">Толкает землю большим щитом.</text>
    <path d="M355 112 L470 117 L465 195 L365 188 Z" fill="#fff" stroke="#111" stroke-width="4"/>
    <text x="412" y="226" text-anchor="middle" font-family="DejaVu Sans,Arial,sans-serif" font-size="17" font-weight="700">Широкий щит</text>
  </g>
  <g transform="translate(630 120)">
    <rect width="550" height="260" fill="#fff" stroke="#ddd"/><line x1="275" y1="10" x2="275" y2="250" stroke="#eee"/>
    <g stroke="#aaa" fill="none"><path d="M20 90 Q90 50 155 90 T255 82"/><path d="M20 155 H255"/><path d="M20 185 H255"/></g>
    <g transform="translate(62 78)" stroke="#111" fill="#fff" stroke-width="4"><circle cx="45" cy="108" r="32"/><circle cx="145" cy="108" r="36"/><path d="M35 80 L52 25 H130 L150 82 Z"/><path d="M76 25 L84 0 H120 L128 25 Z"/><path d="M130 45 L190 70 M140 75 L195 92"/><path d="M190 62 L235 72 L228 122 L198 116 Z"/></g>
    <path d="M245 186 Q266 165 275 190" fill="none" stroke="#777" stroke-width="3"/>
    <text x="138" y="238" text-anchor="middle" font-family="DejaVu Sans,Arial,sans-serif" font-size="16" font-weight="700">Мини-погрузчик набирает песок</text>
    <text x="412" y="52" text-anchor="middle" font-family="DejaVu Sans,Arial,sans-serif" font-size="23" font-weight="700">Колёсный погрузчик</text>
    <text x="412" y="83" text-anchor="middle" font-family="DejaVu Sans,Arial,sans-serif" font-size="12">Набирает песок большим ковшом.</text>
    <path d="M350 112 L475 120 L460 195 L365 187 Z" fill="#fff" stroke="#111" stroke-width="4"/>
    <text x="412" y="226" text-anchor="middle" font-family="DejaVu Sans,Arial,sans-serif" font-size="17" font-weight="700">Большой ковш</text>
  </g>
  <g transform="translate(40 430)">
    <rect width="550" height="260" fill="#fff" stroke="#ddd"/><line x1="275" y1="10" x2="275" y2="250" stroke="#eee"/>
    <g stroke="#aaa" fill="none"><path d="M20 90 Q90 45 155 90 T255 80"/><path d="M20 155 H255"/><path d="M20 185 H255"/></g>
    <g transform="translate(58 76)" stroke="#111" fill="#fff" stroke-width="4"><circle cx="52" cy="113" r="31"/><ellipse cx="190" cy="110" rx="42" ry="44"/><rect x="172" y="68" width="36" height="84"/><path d="M45 82 L62 28 H160 L178 82 Z"/><path d="M88 28 L96 0 H140 L148 28 Z"/></g>
    <circle cx="70" cy="200" r="4"/><circle cx="94" cy="200" r="4"/><circle cx="118" cy="200" r="4"/><line x1="210" y1="200" x2="262" y2="200" stroke="#777" stroke-width="3"/>
    <text x="138" y="238" text-anchor="middle" font-family="DejaVu Sans,Arial,sans-serif" font-size="16" font-weight="700">Дорожный каток выравнивает дорогу</text>
    <text x="412" y="52" text-anchor="middle" font-family="DejaVu Sans,Arial,sans-serif" font-size="27" font-weight="700">Каток</text>
    <text x="412" y="83" text-anchor="middle" font-family="DejaVu Sans,Arial,sans-serif" font-size="12">Прижимает камешки тяжёлым валом.</text>
    <ellipse cx="412" cy="155" rx="58" ry="55" fill="#fff" stroke="#111" stroke-width="4"/><rect x="380" y="100" width="64" height="110" fill="#fff" stroke="#111" stroke-width="4"/>
    <text x="412" y="232" text-anchor="middle" font-family="DejaVu Sans,Arial,sans-serif" font-size="17" font-weight="700">Тяжёлый вал</text>
  </g>
  <g transform="translate(630 430)">
    <rect width="550" height="260" rx="12" fill="#fafafa" stroke="#aaa"/>
    <text x="35" y="58" font-family="DejaVu Sans,Arial,sans-serif" font-size="26" font-weight="700">unclear-object</text>
    <text x="35" y="105" font-family="DejaVu Sans,Arial,sans-serif" font-size="25" font-weight="700">STOP BEFORE GENERATION</text>
    <text x="35" y="150" font-family="DejaVu Sans,Arial,sans-serif" font-size="18">Общий реальный класс не подтверждён.</text>
    <text x="35" y="184" font-family="DejaVu Sans,Arial,sans-serif" font-size="18">Запрошен дополнительный референс.</text>
    <text x="35" y="224" font-family="DejaVu Sans,Arial,sans-serif" font-size="17" fill="#555">Генерация изображения не начинается.</text>
  </g>
</svg>
